<?xml version="1.0" standalone="no"?>
<!DOCTYPE svg PUBLIC "-//W3C//DTD SVG 20010904//EN"
 "http://www.w3.org/TR/2001/REC-SVG-20010904/DTD/svg10.dtd">
<svg version="1.0" xmlns="http://www.w3.org/2000/svg"
 width="1280.000000pt" height="1280.000000pt" viewBox="0 0 1280.000000 1280.000000"
 preserveAspectRatio="xMidYMid meet">
<metadata>
Created by potrace 1.15, written by Peter Selinger 2001-2017
</metadata>
<g transform="translate(0.000000,1280.000000) scale(0.100000,-0.100000)"
fill="#000000" stroke="none">
<path d="M6225 11140 c-540 -28 -1088 -163 -1659 -408 -302 -130 -537 -263
-796 -452 -508 -370 -899 -783 -1215 -1285 -407 -645 -633 -1303 -706 -2060
-41 -428 4 -1067 107 -1510 139 -598 423 -1195 809 -1702 183 -240 532 -610
743 -786 408 -342 928 -633 1450 -811 540 -184 1258 -284 1767 -247 859 63
1551 289 2250 734 357 228 718 538 960 827 39 46 93 109 121 139 143 158 433
600 564 861 126 252 272 648 344 938 97 390 136 712 136 1137 0 310 -19 546
-66 800 -106 582 -268 1016 -580 1557 -264 457 -649 902 -1074 1243 -729 584
-1574 925 -2515 1014 -152 15 -461 20 -640 11z m410 -1060 c285 -15 500 -49
780 -126 512 -140 1012 -407 1395 -745 210 -185 399 -391 497 -539 38 -58 76
-116 86 -130 108 -156 246 -397 340 -597 144 -307 227 -609 283 -1028 24 -174
23 -635 0 -810 -51 -380 -134 -682 -288 -1045 -210 -496 -658 -1069 -1083
-1384 -44 -33 -96 -72 -115 -86 -101 -76 -326 -207 -515 -300 -451 -221 -879
-326 -1445 -355 -125 -7 -446 13 -575 35 -395 67 -465 83 -680 155 -198 66
-514 207 -615 274 -8 6 -40 25 -70 42 -223 129 -437 296 -644 503 -228 228
-343 364 -494 586 -253 370 -440 809 -517 1215 -14 77 -30 158 -35 180 -5 22
-14 99 -20 170 -6 72 -15 177 -20 235 -24 252 2 608 66 910 90 427 252 821
492 1201 58 92 132 193 278 379 60 76 311 326 409 408 297 248 515 386 810
517 450 200 894 312 1325 334 80 5 150 9 155 9 6 1 96 -3 200 -8z"/>
<path d="M5255 8943 c-115 -25 -198 -97 -241 -208 -19 -49 -19 -102 -19 -2265
0 -2138 1 -2217 19 -2263 28 -74 64 -122 115 -155 102 -67 11 -63 1436 -60
1201 3 1293 4 1327 20 92 44 142 95 183 188 20 44 20 75 20 2270 0 2195 0
2226 -20 2270 -44 101 -103 156 -202 192 -50 17 -112 18 -1325 17 -700 -1
-1282 -3 -1293 -6z m1869 -334 c32 -25 34 -64 4 -96 l-21 -23 -561 0 -560 0
-23 22 c-31 29 -30 71 3 97 26 21 35 21 579 21 544 0 553 0 579 -21z m644
-451 c17 -17 17 -3359 0 -3376 -17 -17 -2429 -17 -2446 0 -17 17 -17 3359 0
3376 17 17 2429 17 2446 0z m-1123 -3578 c48 -24 74 -53 102 -110 29 -59 29
-113 -2 -175 -32 -66 -53 -89 -105 -114 -79 -38 -191 -20 -250 39 -36 36 -70
113 -70 158 0 49 37 138 69 164 80 67 173 81 256 38z"/>
</g>
</svg>
