<svg xmlns="http://www.w3.org/2000/svg" viewBox="0 0 1292.47 685.38"><defs><style>.cls-1{fill:#563f35;}</style></defs><g id="Layer_2" data-name="Layer 2"><g id="layout"><path class="cls-1" d="M212.77,131.22l-2.09,1.39-5.46-8.23-.07,0-1.36,12.76-2.36,1.57,1-9.67-12.66-6.22,2.33-1.55,10.55,5.28.6-5.21-3.44-5.18,2.09-1.39Z" transform="translate(-8.59 -8.73)"/><path class="cls-1" d="M195.09,143.53l-2.25,1.72-17.27-11.57,2.11-1.62,9.42,6.64c1.9,1.31,3.72,2.64,5.6,4.06l.1-.07c-.91-2.18-1.72-4.27-2.5-6.45l-3.94-10.84,2-1.55Zm-4.62-11.2-7.19,5.51-1.22-1.58,7.2-5.52Z" transform="translate(-8.59 -8.73)"/><path class="cls-1" d="M173.9,147.06l-.61,2.27L162,145.58l2.13-1.88Zm11.32,4.26-4.62,4.08c-3,2.65-6.12,3.48-8.83.4s-1.7-6.27,1.31-8.93l2.74-2.42-5.51-6.24,1.88-1.66Zm-10.53-3.16c-2.29,2-2.74,4.07-1.05,6s3.59,1.51,5.88-.52l2.48-2.18L177.17,146Z" transform="translate(-8.59 -8.73)"/><path class="cls-1" d="M169.5,165.84l-2,2-18.69-9.1,1.87-1.89,10.24,5.29c2.06,1,4,2.11,6.1,3.26l.09-.09c-1.2-2-2.29-4-3.35-6l-5.39-10.2,1.79-1.81Zm-6.1-10.47L157,161.82l-1.42-1.4L162,154Z" transform="translate(-8.59 -8.73)"/><path class="cls-1" d="M160.79,174.81l-1.94,2.31-10.48-3.91c-1.33-.51-2.68-1.06-4-1.58l-.08.09c.74,1.24,1.53,2.46,2.25,3.69l5.63,9.64-1.94,2.3-15-12.7,1.51-1.78,8.28,7c1.31,1.11,3,2.78,4.24,4l.08-.1-2.42-4.09-5.39-9.41,1.07-1.26,10.19,3.72,4.44,1.71.07-.09c-1.41-1-3.34-2.41-4.65-3.52l-8.28-7,1.46-1.73Z" transform="translate(-8.59 -8.73)"/><path class="cls-1" d="M146.75,192l-6.62,9.21-1.72-1.24,5.16-7.18-5-3.6-4.36,6L132.48,194l4.36-6.06L131,183.73l-5.34,7.42L124,189.92l6.8-9.46Z" transform="translate(-8.59 -8.73)"/><path class="cls-1" d="M137.42,205.28l-1.34,2.12-14.87-9.34-4.57,7.28-1.8-1.13,5.9-9.4Z" transform="translate(-8.59 -8.73)"/><path class="cls-1" d="M111.69,215l.85,2.12a7.72,7.72,0,0,0-4.63,3.74c-1.16,2.31-.71,4.25,1,5.12s3-.08,4.57-1.37l2.39-2c1.53-1.28,3.74-2.57,6.33-1.26s3.48,4.69,1.86,7.89a8.15,8.15,0,0,1-4.79,4.07l-.84-1.92a6.33,6.33,0,0,0,3.67-3.15c1-2,.66-3.78-.91-4.57s-3.1.35-4.38,1.43l-2.35,2c-1.9,1.59-3.92,2.56-6.53,1.24-2.77-1.4-3.83-4.82-2-8.51A9.46,9.46,0,0,1,111.69,215Z" transform="translate(-8.59 -8.73)"/><path class="cls-1" d="M108.41,234.16l10.67,4.45-1,2.32-10.73-4.48c-4.37-1.82-6.51-.55-7.5,1.82s-.42,4.89,3.94,6.71l10.74,4.48-.93,2.21L103,247.22c-5.83-2.43-6.66-6.08-5.11-9.79S102.58,231.73,108.41,234.16Z" transform="translate(-8.59 -8.73)"/><path class="cls-1" d="M108.41,260.21l1.88-5.66,2,.67-4.55,13.69-2-.67,1.88-5.66L90.94,257l.79-2.37Z" transform="translate(-8.59 -8.73)"/><path class="cls-1" d="M94.93,275.54l.76,2.22L84.22,281l.71-2.75Zm11.75-2.84-1.53,6c-1,3.88-3.11,6.31-7.08,5.29-3.81-1-4.93-4.23-3.93-8.12l.91-3.54L87,270.23l.62-2.43ZM96.2,276c-.77,3,0,4.91,2.49,5.54s3.82-.76,4.58-3.72l.82-3.2L97,272.8Z" transform="translate(-8.59 -8.73)"/><path class="cls-1" d="M101.85,293.54l-.51,2.78-20.58,3,.48-2.61,11.44-1.39c2.29-.3,4.53-.53,6.88-.74l0-.12c-2.14-1-4.14-2-6.18-3.12l-10.19-5.4.46-2.51Zm-10.94-5.22-1.63,8.92-2-.36L89,288Z" transform="translate(-8.59 -8.73)"/><path class="cls-1" d="M89.2,310.59c6.33.54,9.87,4.6,9.44,9.58a7.33,7.33,0,0,1-2.88,5.19l-1.51-1.51A5.33,5.33,0,0,0,96.44,320c.32-3.71-2.5-6.44-7.39-6.85s-8.23,1.66-8.54,5.38a5.88,5.88,0,0,0,1.81,4.74l-1.68,1.23a7.57,7.57,0,0,1-2.32-6.26C78.74,313.38,82.83,310,89.2,310.59Z" transform="translate(-8.59 -8.73)"/><path class="cls-1" d="M87.91,327.92c6.3.1,10.08,3.64,10,8.58s-4,8.35-10.28,8.25-10.21-3.64-10.13-8.58S81.6,327.82,87.91,327.92Zm-.23,14.24c4.9.08,8-2.18,8-5.69s-2.93-5.88-7.83-6-8.11,2.18-8.17,5.7S82.77,342.08,87.68,342.16Z" transform="translate(-8.59 -8.73)"/><path class="cls-1" d="M97.64,349.44,98,355.6c.23,4-1,7-5.13,7.2-3.93.23-6-2.53-6.22-6.54l-.21-3.65-8.31.48-.15-2.5Zm-10.33,6.29,1.41,1.88-9.94,6.6-.17-2.83Zm1.35,0c.18,3.06,1.52,4.67,4.06,4.52s3.41-1.88,3.23-4.94l-.19-3.3-7.29.43Z" transform="translate(-8.59 -8.73)"/><path class="cls-1" d="M98.86,366.91l1.4,11.27-2.11.26-1.08-8.78-6.12.76.91,7.4-2.1.26-.92-7.4-7.1.87,1.12,9.08-2.11.26-1.42-11.56Z" transform="translate(-8.59 -8.73)"/><path class="cls-1" d="M93.69,397.81A1.78,1.78,0,1,1,92.26,400,1.79,1.79,0,0,1,93.69,397.81Z" transform="translate(-8.59 -8.73)"/><path class="cls-1" d="M111.11,423.45l.9,2.43-9.16,11-3.09,3.4,0,.11c1.82-.8,3.84-1.75,5.77-2.46l9.56-3.52.82,2.23-18.47,6.8-.9-2.42,9.17-11,3.08-3.4,0-.11c-1.83.81-3.73,1.71-5.66,2.42l-9.67,3.56-.82-2.23Z" transform="translate(-8.59 -8.73)"/><path class="cls-1" d="M118.2,442l4.66,10.35-1.94.87-3.62-8.07-5.63,2.53,3.06,6.8-1.94.87-3.05-6.8-6.53,2.94,3.75,8.33-1.94.87L100.25,450Z" transform="translate(-8.59 -8.73)"/><path class="cls-1" d="M123.93,454.91l1.24,2.27-8.42,6.95-5,4.05.06.1c2.06-.63,4.16-1.23,6.23-1.82l10.72-2.73,1.09,2-8.1,7.53-4.9,4.29.06.1c2-.68,4.09-1.39,6.11-2.06l10.4-3.31,1.15,2.12-19.23,5.84-1.44-2.64,9-8.28c1.19-1,2.29-2,3.48-3l0-.1c-1.48.45-2.9.84-4.41,1.28l-11.79,3.1L108.65,468Z" transform="translate(-8.59 -8.73)"/><path class="cls-1" d="M132.15,492.61l6.63-11.69,1.51,2.21-3.16,5.23c-.85,1.34-1.64,2.6-2.47,4l.06.1c1.6-.27,3.12-.48,4.66-.8l6-1,1.46,2.14-13.29,1.91-6.31,4.3-1.41-2.07Z" transform="translate(-8.59 -8.73)"/><path class="cls-1" d="M140.06,500.08c5-3.88,10.12-3.51,13.17.38s2.16,9-2.79,12.88-10.23,3.6-13.28-.3S135.09,504,140.06,500.08Zm8.78,11.22c3.86-3,4.82-6.71,2.65-9.48s-6-2.72-9.83.3-4.94,6.8-2.77,9.57S145,514.32,148.84,511.3Z" transform="translate(-8.59 -8.73)"/><path class="cls-1" d="M161.18,510.8l4.14,4.57c2.69,3,3.56,6.07.52,8.82S159.59,526,156.9,523l-2.46-2.71-6.17,5.58L146.59,524Zm-4.11,11.37,2.28.59-3.6,11.37L153.84,532Zm1.09-.8c2.06,2.27,4.11,2.68,6,1s1.47-3.61-.59-5.88L161.36,514l-5.41,4.9Z" transform="translate(-8.59 -8.73)"/><path class="cls-1" d="M173.06,523.63l1.8,1.74L168,532.48l.06,0,12.74-1.42,2,2-9.64,1.12-3.36,13.7-2-1.94,2.89-11.44-5.22.54-4.32,4.47-1.8-1.74Z" transform="translate(-8.59 -8.73)"/><path class="cls-1" d="M179.27,552.69l2.24-.4a7.7,7.7,0,0,0,2.71,5.3c2,1.62,4,1.58,5.21.09s.55-3-.39-4.76l-1.42-2.74c-.94-1.76-1.75-4.2.07-6.45s5.32-2.43,8.1-.19a8.1,8.1,0,0,1,3,5.53l-2,.42a6.29,6.29,0,0,0-2.33-4.23c-1.72-1.39-3.55-1.44-4.66-.06s-.29,3.1.5,4.58l1.43,2.7c1.16,2.19,1.69,4.36-.14,6.64s-5.51,2.75-8.74.16A9.43,9.43,0,0,1,179.27,552.69Z" transform="translate(-8.59 -8.73)"/><path class="cls-1" d="M197.32,559.85l6.61-9.48,2,1.43-6.65,9.54c-2.7,3.88-1.91,6.24.2,7.71s4.68,1.45,7.38-2.43l6.65-9.54,2,1.37-6.61,9.49c-3.61,5.18-7.35,5.22-10.65,2.92S193.71,565,197.32,559.85Z" transform="translate(-8.59 -8.73)"/><path class="cls-1" d="M220.35,561.5l4.83,2.88c3.79,2.26,5.59,5.06,3.38,8.76s-5.66,3.71-9.36,1.51L216.42,573l-4,6.71-2.15-1.28ZM220,572.74c3,1.76,5,1.53,6.44-.88s.43-4.13-2.54-5.9l-2.41-1.43-4,6.71Z" transform="translate(-8.59 -8.73)"/><path class="cls-1" d="M235.42,570.25l10.1,5.16-1,1.89-7.87-4-2.81,5.49,6.64,3.39-1,1.89-6.64-3.4L229.65,587l8.14,4.16-1,1.89-10.37-5.31Z" transform="translate(-8.59 -8.73)"/><path class="cls-1" d="M250,577.49l5.66,2.45c3.68,1.59,5.75,4.06,4.12,7.82s-4.95,4.21-8.63,2.62l-3.36-1.46-3.3,7.64-2.3-1Zm1.62,10.88c2.82,1.21,4.86.74,5.87-1.6s-.16-3.89-3-5.11l-3-1.31-2.9,6.71Zm-.65,1.18,2.31-.41L254.68,601l-2.61-1.12Z" transform="translate(-8.59 -8.73)"/><path class="cls-1" d="M272.45,586.55l10.78,3.56-.66,2-8.4-2.77-2.08,6.31,7.12,2.35-.66,2-7.13-2.35L268.66,606l-2.38-.78Z" transform="translate(-8.59 -8.73)"/><path class="cls-1" d="M284,602.4l2.88-11.2,2.43.63-2.9,11.26c-1.17,4.58.39,6.52,2.88,7.16s4.89-.28,6.07-4.87l2.89-11.26,2.33.6-2.88,11.19c-1.57,6.12-5.06,7.47-9,6.47S282.44,608.52,284,602.4Z" transform="translate(-8.59 -8.73)"/><path class="cls-1" d="M306.12,595.9l4.85.87c6,1.06,8.53,5.1,7.43,11.26s-4.94,9.18-10.79,8.14l-4.95-.89Zm1.56,18.19c4.53.81,7.3-1.62,8.18-6.52s-.9-8-5.43-8.81l-2.2-.39-2.74,15.33Z" transform="translate(-8.59 -8.73)"/><path class="cls-1" d="M322.53,608.7c.67-6.31,4.87-9.76,10.06-9.21a7.63,7.63,0,0,1,5.39,3L336.44,604a5.55,5.55,0,0,0-4-2.29c-3.94-.41-6.79,2.35-7.31,7.23s1.49,8.25,5.66,8.69a5.3,5.3,0,0,0,3.65-.78l.54-5.1-4.15-.43.22-2.07,6.42.68-.87,8.23a8.38,8.38,0,0,1-6.27,1.63C325.14,619.22,321.86,615.06,322.53,608.7Z" transform="translate(-8.59 -8.73)"/><path class="cls-1" d="M343.58,600.76l11.34.43-.08,2.12L346,603l-.23,6.17,7.45.28-.08,2.12-7.45-.28-.28,7.15,9.14.35-.08,2.12-11.64-.45Z" transform="translate(-8.59 -8.73)"/><path class="cls-1" d="M365.84,611c-.3-6.35,3.26-10.39,8.25-10.63a7.34,7.34,0,0,1,5.52,2.17l-1.29,1.7a5.33,5.33,0,0,0-4.08-1.67c-3.72.18-6.05,3.34-5.81,8.24s2.74,7.93,6.47,7.75a5.88,5.88,0,0,0,4.45-2.42l1.45,1.51a7.62,7.62,0,0,1-5.9,3.12C370,621,366.15,617.41,365.84,611Z" transform="translate(-8.59 -8.73)"/><path class="cls-1" d="M384,600.13l2.49-.29.94,8.2,9.1-1-.95-8.19,2.49-.29,2.26,19.56-2.49.28-1.06-9.19-9.1,1.05,1.06,9.19-2.49.29Z" transform="translate(-8.59 -8.73)"/><path class="cls-1" d="M405.91,609l-2.14-11.36,2.46-.46,2.16,11.43c.87,4.64,3.11,5.74,5.64,5.26s4.31-2.33,3.44-7l-2.16-11.43,2.36-.45,2.14,11.36c1.17,6.21-1.42,8.91-5.37,9.65S407.08,615.22,405.91,609Z" transform="translate(-8.59 -8.73)"/><path class="cls-1" d="M423.2,593.79l2.5-.66,10.05,10.15,3.09,3.4.12,0c-.63-1.89-1.38-4-1.91-6l-2.59-9.85,2.3-.61,5,19-2.5.66-10-10.16-3.09-3.39-.11,0c.63,1.89,1.35,3.87,1.87,5.87l2.63,10-2.3.61Z" transform="translate(-8.59 -8.73)"/><path class="cls-1" d="M442.3,588.5l2.37-.8,3.17,9.36.08,0,4.58-12,2.69-.91-3.43,9.09,10.64,9.27-2.65.89-8.84-7.81L449,600.46l2,5.9-2.37.8Z" transform="translate(-8.59 -8.73)"/><path class="cls-1" d="M475.09,586.83a1.79,1.79,0,1,1,2.39,1A1.79,1.79,0,0,1,475.09,586.83Z" transform="translate(-8.59 -8.73)"/><path class="cls-1" d="M496.83,564.72l2.57-1.58,8.72,7c1.11.9,2.22,1.85,3.34,2.77l.1-.06c-.31-1.41-.69-2.81-1-4.21l-2.32-10.92,2.57-1.58,10.29,16.8-2,1.21-5.66-9.24c-.89-1.47-2-3.59-2.77-5.14l-.1.07,1,4.64,2.16,10.63-1.42.86-8.5-6.74-3.67-3-.11.06c1,1.42,2.42,3.34,3.32,4.8l5.66,9.25-1.93,1.18Z" transform="translate(-8.59 -8.73)"/><path class="cls-1" d="M515.66,552.78l2.06-1.43,11.2,16.19L526.86,569Z" transform="translate(-8.59 -8.73)"/><path class="cls-1" d="M522.58,548l2-1.58,13.19,5.47,4.17,1.93.1-.07c-1.31-1.5-2.82-3.14-4.07-4.77l-6.22-8.08,1.89-1.45,12,15.6-2.05,1.58-13.2-5.47-4.16-1.93-.1.08c1.32,1.5,2.75,3.05,4,4.68l6.28,8.16-1.89,1.45Z" transform="translate(-8.59 -8.73)"/><path class="cls-1" d="M542.66,534.58l-4.48,3.92-1.4-1.59,10.84-9.51L549,529l-4.47,3.93,11.59,13.2-1.88,1.65Z" transform="translate(-8.59 -8.73)"/><path class="cls-1" d="M561.65,527.6c-4.58-4.4-4.79-9.78-1.33-13.38a7.35,7.35,0,0,1,5.5-2.23l.23,2.12a5.39,5.39,0,0,0-4.11,1.6c-2.57,2.69-2.09,6.58,1.45,10s7.44,3.87,10,1.18A5.88,5.88,0,0,0,575,522l2.09.1a7.61,7.61,0,0,1-2.14,6.32C571.54,532,566.26,532,561.65,527.6Z" transform="translate(-8.59 -8.73)"/><path class="cls-1" d="M567.35,507.18l1.61-1.92,6.32,5.29,5.89-7-6.32-5.3,1.61-1.92L591.55,509l-1.61,1.92-7.1-5.95L577,512l7.1,5.95-1.61,1.92Z" transform="translate(-8.59 -8.73)"/><path class="cls-1" d="M587.28,498.41c-5.11-3.7-6.19-8.75-3.29-12.76s8-4.57,13.14-.89,6.3,8.83,3.41,12.84S592.39,502.1,587.28,498.41Zm8.34-11.55c-4-2.87-7.79-2.77-9.85.08s-.95,6.5,3,9.37,7.9,2.85,10,0S599.59,489.73,595.62,486.86Z" transform="translate(-8.59 -8.73)"/><path class="cls-1" d="M599.52,481.29c-5.39-3.36-6.69-8.58-4-12.82a7.36,7.36,0,0,1,4.92-3.31l.66,2a5.38,5.38,0,0,0-3.69,2.41c-2,3.16-.69,6.87,3.47,9.46s8.08,2.26,10.06-.91a5.94,5.94,0,0,0,.54-5l2.06-.33a7.59,7.59,0,0,1-.79,6.62C610.11,483.56,605,484.68,599.52,481.29Z" transform="translate(-8.59 -8.73)"/><path class="cls-1" d="M608.56,466.51c-5.56-3-7.3-7.85-5-12.21s7.36-5.6,12.91-2.63,7.42,7.92,5.08,12.28S614.11,469.49,608.56,466.51ZM615.29,454c-4.33-2.31-8.09-1.71-9.75,1.39s-.08,6.57,4.24,8.89,8.21,1.77,9.87-1.32S619.61,456.27,615.29,454Z" transform="translate(-8.59 -8.73)"/><path class="cls-1" d="M609.87,442.83l1-2.28,16,7.3,3.57-7.82,1.92.88L627.77,451Z" transform="translate(-8.59 -8.73)"/><path class="cls-1" d="M617.5,425.17l1-2.63,20.77.91-1,2.47-11.49-.77c-2.31-.14-4.56-.33-6.9-.56l-.05.11c1.91,1.39,3.69,2.76,5.48,4.22l9,7.21-.92,2.37Zm9.76,7.18,3.28-8.45,1.86.72-3.28,8.45Z" transform="translate(-8.59 -8.73)"/><path class="cls-1" d="M624.7,411.54l-1.85,5.67-2-.66,4.48-13.71,2,.66-1.85,5.66,16.71,5.45L641.4,417Z" transform="translate(-8.59 -8.73)"/><path class="cls-1" d="M626.39,398.94l2.88-11,2.05.53-2.24,8.56,6,1.56,1.89-7.22,2,.54-1.89,7.22L644,401l2.32-8.84,2,.53-2.95,11.27Z" transform="translate(-8.59 -8.73)"/><path class="cls-1" d="M641.24,379.39c-6.26-1.07-9.45-5.42-8.6-10.34a7.33,7.33,0,0,1,3.31-4.93l1.38,1.63a5.35,5.35,0,0,0-2.51,3.63c-.63,3.67,1.95,6.62,6.79,7.45s8.34-1,9-4.64a5.92,5.92,0,0,0-1.41-4.88l1.78-1.08a7.59,7.59,0,0,1,1.78,6.43C651.9,377.5,647.54,380.48,641.24,379.39Z" transform="translate(-8.59 -8.73)"/><path class="cls-1" d="M644,362.29c-6.27-.66-9.72-4.51-9.2-9.43s4.7-8,11-7.31,9.86,4.53,9.34,9.45S650.3,363,644,362.29Zm1.49-14.16c-4.88-.52-8.13,1.47-8.5,5s2.4,6.11,7.28,6.63,8.27-1.46,8.64-5S650.4,348.64,645.52,348.13Z" transform="translate(-8.59 -8.73)"/><path class="cls-1" d="M646.08,341.35c-6.3-.2-10-3.8-9.85-8.74s4.11-8.28,10.4-8.08,10.16,3.8,10,8.75S652.38,341.56,646.08,341.35Zm.46-14.23c-4.9-.16-8,2.05-8.11,5.56s2.83,5.93,7.74,6.08,8.14-2,8.25-5.56S651.45,327.28,646.54,327.12Z" transform="translate(-8.59 -8.73)"/><path class="cls-1" d="M636.77,319.55l-.08-2.51,9.87-.32v-.08l-10.14-7.86-.09-2.83,7.7,5.91,12-7.5.09,2.79-10,6.21,4.11,3.24,6.22-.2.08,2.51Z" transform="translate(-8.59 -8.73)"/><path class="cls-1" d="M636,301.61l-.19-2.5,19.63-1.51.19,2.5Z" transform="translate(-8.59 -8.73)"/><path class="cls-1" d="M635.26,293.14l-1.35-11.27,2.11-.25,1.05,8.78,6.12-.73-.88-7.41,2.1-.25.89,7.41,7.1-.85-1.08-9.08,2.11-.25,1.38,11.57Z" transform="translate(-8.59 -8.73)"/><path class="cls-1" d="M640.68,262.29a1.79,1.79,0,1,1,1.46-2.13A1.8,1.8,0,0,1,640.68,262.29Z" transform="translate(-8.59 -8.73)"/><path class="cls-1" d="M624.55,238.79l-.83-2.52,9.13-6.34c2-1.38,3.62-2.41,5.58-3.82l0-.11c-2.42,0-4.36.14-6.77.22l-11.1.31-.79-2.42,20.65-.19.91,2.76Z" transform="translate(-8.59 -8.73)"/><path class="cls-1" d="M617.27,217.72l-1-2.64,15.93-13.35,1,2.48-9,7.18c-1.79,1.46-3.57,2.83-5.46,4.25l0,.11c2.35-.26,4.58-.45,6.89-.59l11.51-.75.92,2.37Zm12-1.3L626,208l1.86-.72,3.29,8.44Z" transform="translate(-8.59 -8.73)"/><path class="cls-1" d="M612.58,206l-1.08-2.35L619.74,192l2.81-3.64,0-.11c-1.75.95-3.69,2.06-5.55,2.92l-9.25,4.28-1-2.16,17.87-8.26,1.08,2.34-8.25,11.67-2.8,3.63,0,.11c1.76-1,3.58-2,5.45-2.87l9.35-4.32,1,2.16Z" transform="translate(-8.59 -8.73)"/><path class="cls-1" d="M603.94,188l-1.16-2.22,17.44-9.12,1.16,2.22Z" transform="translate(-8.59 -8.73)"/><path class="cls-1" d="M600,180.51l-1.24-2.17,15.22-8.76-4.28-7.45,1.84-1L617,170.7Z" transform="translate(-8.59 -8.73)"/><path class="cls-1" d="M592.28,167.47l-1.36-2.1,14.76-9.53L601,148.62l1.78-1.15,6,9.33Z" transform="translate(-8.59 -8.73)"/><path class="cls-1" d="M581.56,151.52l-1.66-2.28,12-17,1.56,2.14-6.89,9.24c-1.37,1.86-2.75,3.64-4.21,5.49l.07.1c2.2-.85,4.31-1.6,6.51-2.32l10.94-3.64,1.5,2.06Zm11.32-4.3-5.32-7.34,1.62-1.17,5.32,7.34Z" transform="translate(-8.59 -8.73)"/><path class="cls-1" d="M573.41,124.88a1.79,1.79,0,1,1-2.34-2.7,1.79,1.79,0,1,1,2.34,2.7Z" transform="translate(-8.59 -8.73)"/><path class="cls-1" d="M553.44,103.87c-4.3,4.67-9.68,5-13.35,1.6a7.33,7.33,0,0,1-2.34-5.45l2.12-.27a5.34,5.34,0,0,0,1.68,4.07c2.74,2.52,6.62,2,9.94-1.65s3.72-7.52,1-10a5.91,5.91,0,0,0-4.86-1.47l.06-2.09a7.58,7.58,0,0,1,6.36,2C557.64,93.89,557.77,99.17,553.44,103.87Z" transform="translate(-8.59 -8.73)"/><path class="cls-1" d="M532.89,98.54,531,97l5.19-6.4L529,84.79l-5.19,6.41-2-1.58,12.4-15.29,1.94,1.57-5.83,7.19,7.12,5.77,5.83-7.19,1.94,1.58Z" transform="translate(-8.59 -8.73)"/><path class="cls-1" d="M524,76.7l-6.66,9.44-2-1.44,6.7-9.5c2.72-3.87,1.95-6.24-.15-7.72s-4.68-1.48-7.4,2.39l-6.7,9.51-2-1.39,6.66-9.45c3.65-5.16,7.39-5.18,10.68-2.86S527.6,71.53,524,76.7Z" transform="translate(-8.59 -8.73)"/><path class="cls-1" d="M501,74.88l-2.21-1.35.35-14.28.31-4.59-.11-.06c-.92,1.76-1.91,3.76-3,5.52L491,68.82l-2-1.24,10.25-16.81,2.21,1.34-.36,14.29-.3,4.58.1.06c.93-1.77,1.86-3.66,2.93-5.42l5.36-8.8,2,1.24Z" transform="translate(-8.59 -8.73)"/><path class="cls-1" d="M483.9,64.72l-2.22-1.16,4.59-8.75-.07,0-11.84,4.94-2.51-1.31,8.94-3.78-.63-14.1,2.48,1.3.44,11.79,4.86-2,2.89-5.51,2.22,1.17Z" transform="translate(-8.59 -8.73)"/><path class="cls-1" d="M470.51,44.5l.36,13.43-2.43-1.11V50.71c0-1.59.06-3.08.06-4.7l-.11,0C467.15,47,466,48,464.81,49l-4.62,4L457.83,52l10.4-8.5,3.17-6.94,2.28,1Z" transform="translate(-8.59 -8.73)"/><path class="cls-1" d="M449,48.32l-2.84-1V36.12c0-1.43,0-2.89.07-4.33l-.12,0c-.9,1.12-1.76,2.29-2.66,3.4l-7.07,8.64-2.84-1,6.65-18.53,2.19.78-3.66,10.21c-.58,1.61-1.56,3.78-2.26,5.37l.11,0,3-3.7,6.93-8.33,1.56.56L448.12,40l-.05,4.75.12,0c.47-1.68,1.08-4,1.66-5.59L453.51,29l2.14.76Z" transform="translate(-8.59 -8.73)"/><path class="cls-1" d="M431.77,32c-1.7,6.08-6.07,8.83-10.83,7.5s-7.08-6-5.39-12,6.1-9,10.87-7.64S433.46,25.88,431.77,32ZM418,28.12c-1.31,4.73.1,8.27,3.49,9.21S428,36,429.27,31.25s-.06-8.39-3.44-9.34S419.36,23.4,418,28.12Z" transform="translate(-8.59 -8.73)"/><path class="cls-1" d="M408.39,35.81l-2.53-.53-4.48-13.56-1.26-4.43-.12,0c-.28,2-.54,4.19-.95,6.2l-2.06,10L394.66,33l4-19.28,2.53.52,4.48,13.57,1.26,4.42.12,0c.28-2,.51-4.07.93-6.09L410,16l2.33.48Z" transform="translate(-8.59 -8.73)"/><path class="cls-1" d="M388.91,32l-2.48-.35,1.36-9.78h-.08l-9.47,8.65-2.8-.39,7.14-6.58-5.36-13,2.77.39,4.4,10.94,3.9-3.5.86-6.16,2.48.34Z" transform="translate(-8.59 -8.73)"/><path class="cls-1" d="M371.17,29.73l-11.31-.92.17-2.12,8.82.72.5-6.15-7.44-.61.18-2.11,7.43.61L370.1,12,361,11.27l.17-2.12,11.62.95Z" transform="translate(-8.59 -8.73)"/><path class="cls-1" d="M352,16.42l5.56,12.23-2.67-.08-2.38-5.63c-.59-1.47-1.14-2.85-1.78-4.34h-.12c-.72,1.46-1.44,2.8-2.09,4.24l-2.7,5.48-2.59-.08,6.26-11.88.23-7.62,2.5.07Z" transform="translate(-8.59 -8.73)"/><path class="cls-1" d="M327,18.59a1.79,1.79,0,1,1-1.87-1.78A1.78,1.78,0,0,1,327,18.59Z" transform="translate(-8.59 -8.73)"/><path class="cls-1" d="M298.22,21.27c1,6.27-2.12,10.68-7.05,11.45a7.37,7.37,0,0,1-5.73-1.56l1.11-1.83a5.29,5.29,0,0,0,4.23,1.22c3.68-.57,5.65-4,4.89-8.81s-3.58-7.59-7.27-7a5.91,5.91,0,0,0-4.16,2.89l-1.6-1.34a7.56,7.56,0,0,1,5.53-3.74C293,11.78,297.23,15,298.22,21.27Z" transform="translate(-8.59 -8.73)"/><path class="cls-1" d="M281.23,34.06l-2.45.54L277,26.54l-8.95,2,1.77,8.06-2.45.54-4.22-19.24,2.45-.54,2,9.05,8.95-2-2-9,2.45-.54Z" transform="translate(-8.59 -8.73)"/><path class="cls-1" d="M261.68,38.57l-10.92,3.07-.58-2,8.52-2.39L257,31.27l-7.18,2-.58-2,7.18-2-1.93-6.9-8.81,2.48-.57-2,11.22-3.15Z" transform="translate(-8.59 -8.73)"/><path class="cls-1" d="M237.21,34.85l-1.44,1.86-9-7.82,2.69-.91ZM246,43.13l-5.84,2c-3.8,1.29-7,.86-8.31-3-1.27-3.72.84-6.45,4.64-7.74L240,33.17,237.3,25.3l2.37-.81Zm-8.51-7c-2.9,1-4.1,2.7-3.28,5.12s2.73,2.78,5.63,1.79L243,42l-2.36-6.91Z" transform="translate(-8.59 -8.73)"/><path class="cls-1" d="M220.19,41.18l-1.33,1.94-9.45-7.29,2.64-1.07ZM229.46,49l-5.72,2.31c-3.71,1.51-6.92,1.26-8.46-2.54-1.48-3.65.48-6.48,4.19-8l3.39-1.38-3.12-7.71,2.32-.94Zm-8.89-6.47c-2.84,1.15-3.94,2.93-3,5.3s2.88,2.62,5.72,1.47L226.37,48l-2.74-6.76Z" transform="translate(-8.59 -8.73)"/><path class="cls-1" d="M205.22,46.16l10.47,8.42-2.43,1.13-4.65-4c-1.18-1-2.3-2-3.54-3.08l-.11,0c0,1.62,0,3.15,0,4.72l.05,6.11-2.35,1.09L203,47.22l-3.23-6.92L202,39.24Z" transform="translate(-8.59 -8.73)"/><path class="cls-1" d="M190.33,55.9c3.11,5.53,1.68,10.78-2.87,13.34a7.68,7.68,0,0,1-6.14.66l.4-2.1a5.56,5.56,0,0,0,4.61-.45c3.45-1.94,4.18-5.85,1.78-10.13s-6-5.87-9.65-3.81a5.31,5.31,0,0,0-2.52,2.74l2.51,4.47,3.63-2,1,1.81-5.63,3.16-4.05-7.21a8.45,8.45,0,0,1,4.17-5C182.12,48.83,187.2,50.32,190.33,55.9Z" transform="translate(-8.59 -8.73)"/><path class="cls-1" d="M174.4,76.66,172,78.18l-16.22-13L158,63.74l8.82,7.42c1.78,1.47,3.48,3,5.23,4.53l.1-.06c-.71-2.26-1.34-4.41-1.93-6.65l-3-11.13,2.14-1.38ZM170.76,65.1,163.12,70,162,68.3l7.64-4.88Z" transform="translate(-8.59 -8.73)"/><path class="cls-1" d="M153,78.23l-.83,2.2-10.9-4.86,2.31-1.66Zm10.84,5.37-5,3.6c-3.25,2.34-6.43,2.85-8.83-.48s-1-6.42,2.2-8.75l3-2.14-4.86-6.76,2-1.46Zm-10.16-4.19c-2.49,1.78-3.13,3.78-1.64,5.85s3.41,1.86,5.9.08l2.68-1.93-4.26-5.93Z" transform="translate(-8.59 -8.73)"/><path class="cls-1" d="M144.32,85.59c4,4.94,3.51,10.3-.37,13.44a7.32,7.32,0,0,1-5.74,1.51l0-2.13a5.37,5.37,0,0,0,4.28-1.06c2.89-2.34,2.9-6.27-.18-10.08s-6.89-4.79-9.8-2.44a5.9,5.9,0,0,0-2.16,4.59l-2.06-.36a7.61,7.61,0,0,1,2.92-6C135.06,80,140.31,80.61,144.32,85.59Z" transform="translate(-8.59 -8.73)"/><path class="cls-1" d="M136,105.28l-1.88,1.65-13-14.79L123,90.49Z" transform="translate(-8.59 -8.73)"/><path class="cls-1" d="M126.64,113.74l-2,2L106.19,106l1.92-1.83,10.07,5.59c2,1.11,4,2.24,6,3.45l.08-.08c-1.13-2.08-2.15-4.07-3.16-6.15L116,96.65l1.85-1.76Zm-5.77-10.64-6.57,6.25-1.38-1.45,6.57-6.25Z" transform="translate(-8.59 -8.73)"/><path class="cls-1" d="M101.3,125.3a1.79,1.79,0,1,1-2.58.09A1.79,1.79,0,0,1,101.3,125.3Z" transform="translate(-8.59 -8.73)"/><path class="cls-1" d="M83,147.73c5.16,3.7,6.12,9,3.21,13.06a7.34,7.34,0,0,1-5.13,3l-.52-2.07a5.33,5.33,0,0,0,3.84-2.16c2.17-3,1.13-6.81-2.85-9.67s-7.92-2.77-10.09.26a5.89,5.89,0,0,0-.87,5l-2.08.19a7.6,7.6,0,0,1,1.22-6.56C72.58,144.78,77.8,144,83,147.73Z" transform="translate(-8.59 -8.73)"/><path class="cls-1" d="M80.19,168.79l-1.33,2.12-7-4.4L67,174.25l7,4.4-1.34,2.12L56,170.27l1.34-2.12,7.83,4.94L70,165.34,62.2,160.4l1.34-2.12Z" transform="translate(-8.59 -8.73)"/><path class="cls-1" d="M61.62,180.16c5.54,3,7.25,7.88,4.88,12.23s-7.39,5.56-12.92,2.55-7.37-8-5-12.3S56.08,177.14,61.62,180.16Zm-6.8,12.51c4.31,2.34,8.07,1.75,9.75-1.33s.12-6.57-4.18-8.91-8.2-1.83-9.88,1.26S50.51,190.32,54.82,192.67Z" transform="translate(-8.59 -8.73)"/><path class="cls-1" d="M51.67,198.62c5.76,2.69,7.68,7.71,5.57,12.24a7.35,7.35,0,0,1-4.5,3.88l-.89-1.94A5.34,5.34,0,0,0,55.22,210c1.58-3.37-.14-6.9-4.58-9s-8.29-1.26-9.87,2.12a5.89,5.89,0,0,0,.07,5.07l-2,.58a7.6,7.6,0,0,1,0-6.68C40.89,197.64,45.88,195.91,51.67,198.62Z" transform="translate(-8.59 -8.73)"/><path class="cls-1" d="M44.47,214.37c5.86,2.33,8.14,7,6.31,11.57s-6.68,6.4-12.53,4.07-8.26-7-6.44-11.62S38.61,212,44.47,214.37ZM39.21,227.6c4.56,1.82,8.22.79,9.52-2.48s-.65-6.53-5.21-8.35-8.36-.83-9.66,2.43S34.65,225.79,39.21,227.6Z" transform="translate(-8.59 -8.73)"/><path class="cls-1" d="M45.8,238.11,45,240.49l-16.67-5.56-2.72,8.15-2-.67,3.51-10.53Z" transform="translate(-8.59 -8.73)"/><path class="cls-1" d="M40,256.49l-.76,2.72-20.75,1.16.7-2.55,11.52-.38c2.31-.09,4.56-.12,6.92-.13l0-.11c-2-1.2-3.94-2.38-5.87-3.65l-9.67-6.28.68-2.46Zm-10.43-6.17-2.42,8.74-1.93-.54,2.42-8.73Z" transform="translate(-8.59 -8.73)"/><path class="cls-1" d="M34.19,270.8,35.5,265l2.07.46L34.4,279.52l-2.07-.47,1.31-5.81L16.5,269.38l.55-2.44Z" transform="translate(-8.59 -8.73)"/><path class="cls-1" d="M33.66,283.51l-1.9,11.19-2.09-.36,1.48-8.72-6.08-1-1.25,7.35-2.09-.35L23,284.23l-7-1.2-1.54,9-2.09-.35,2-11.48Z" transform="translate(-8.59 -8.73)"/><path class="cls-1" d="M20.53,304.27c6.32.59,9.83,4.68,9.37,9.65A7.37,7.37,0,0,1,27,319.09l-1.49-1.52a5.39,5.39,0,0,0,2.22-3.81c.35-3.7-2.46-6.45-7.34-6.91s-8.24,1.61-8.59,5.32a5.91,5.91,0,0,0,1.78,4.76l-1.7,1.22a7.61,7.61,0,0,1-2.26-6.28C10,307,14.16,303.67,20.53,304.27Z" transform="translate(-8.59 -8.73)"/><path class="cls-1" d="M28.74,323.87l-.08,2.51-8.24-.28-.31,9.15,8.24.28-.08,2.5-19.68-.66.08-2.5,9.26.31.3-9.15L9,325.71l.09-2.5Z" transform="translate(-8.59 -8.73)"/><path class="cls-1" d="M28.33,344l0,2.51-19.69.32,0-2.51Z" transform="translate(-8.59 -8.73)"/><path class="cls-1" d="M28.45,352.49l.28,5.61c.21,4.41-1.13,7.46-5.43,7.67-4.14.2-6.22-2.66-6.43-7l-.16-3.23L8.9,356l-.12-2.5Zm-9.57,5.9c.17,3.44,1.49,5,4.29,4.88s3.68-1.93,3.51-5.38l-.14-2.8-7.8.38Z" transform="translate(-8.59 -8.73)"/><path class="cls-1" d="M20.17,376.73c6.3-.77,10.6,2.48,11.21,7.44a7.37,7.37,0,0,1-1.75,5.67l-1.79-1.17a5.35,5.35,0,0,0,1.36-4.19c-.46-3.7-3.78-5.78-8.65-5.18s-7.71,3.32-7.25,7a5.88,5.88,0,0,0,2.75,4.26l-1.4,1.55a7.58,7.58,0,0,1-3.55-5.65C10.5,381.62,13.82,377.51,20.17,376.73Z" transform="translate(-8.59 -8.73)"/><path class="cls-1" d="M22.41,393.89c6.2-1.11,10.58,1.64,11.45,6.51s-2.3,9-8.5,10.06-10.73-1.61-11.6-6.48S16.2,395,22.41,393.89Zm2.49,14c4.83-.87,7.41-3.67,6.79-7.13s-4-5.21-8.83-4.35-7.54,3.69-6.93,7.15S20.07,408.78,24.9,407.92Z" transform="translate(-8.59 -8.73)"/><path class="cls-1" d="M26.22,414.56c6.13-1.49,10.67,1,11.84,5.79s-1.75,9.08-7.87,10.57-10.8-.95-12-5.76S20.09,416.05,26.22,414.56Zm3.36,13.84c4.77-1.15,7.16-4.12,6.33-7.53s-4.31-4.95-9.08-3.8-7.3,4.16-6.47,7.57S24.81,429.56,29.58,428.4Z" transform="translate(-8.59 -8.73)"/><path class="cls-1" d="M41,433.13l.73,2.4-9.45,2.88,0,.08,11.84,4.95.82,2.71-9-3.71-9.59,10.37-.81-2.68,8.07-8.61-4.82-2.06-6,1.82-.74-2.4Z" transform="translate(-8.59 -8.73)"/><path class="cls-1" d="M46.45,450.26l.82,2.37-18.58,6.5-.83-2.37Z" transform="translate(-8.59 -8.73)"/><path class="cls-1" d="M49.29,458.31l4.15,10.56-2,.77-3.23-8.23-5.74,2.26,2.73,6.94-2,.77-2.72-6.94-6.67,2.61,3.34,8.51-2,.78L31,465.5Z" transform="translate(-8.59 -8.73)"/><path class="cls-1" d="M51.73,489.56a1.79,1.79,0,1,1-.9,2.43A1.81,1.81,0,0,1,51.73,489.56Z" transform="translate(-8.59 -8.73)"/><path class="cls-1" d="M69,521c5.34-3.44,10.62-2.39,13.33,1.81a7.36,7.36,0,0,1,.89,5.87l-2.12-.27a5.35,5.35,0,0,0-.6-4.37c-2-3.13-5.92-3.55-10-.9S65,529.51,67,532.65a5.91,5.91,0,0,0,4.33,2.64l-.58,2a7.55,7.55,0,0,1-5.66-3.54C62.45,529.63,63.65,524.49,69,521Z" transform="translate(-8.59 -8.73)"/><path class="cls-1" d="M87.59,531.39l1.47,2-6.67,4.85,5.39,7.4,6.67-4.85,1.47,2L80,554.43l-1.48-2L86,547l-5.38-7.41L73.14,545l-1.47-2Z" transform="translate(-8.59 -8.73)"/><path class="cls-1" d="M91.24,552.82c4.87-4,10-3.76,13.17,0s2.39,8.94-2.47,12.94-10.14,3.85-13.28,0S86.37,556.83,91.24,552.82Zm9.05,11c3.79-3.12,4.65-6.83,2.42-9.54s-6-2.57-9.83.55-4.75,6.91-2.52,9.63S96.51,566.93,100.29,563.81Z" transform="translate(-8.59 -8.73)"/><path class="cls-1" d="M104.65,569c4.66-4.31,10-4.19,13.44-.52a7.35,7.35,0,0,1,1.89,5.63l-2.13.1a5.35,5.35,0,0,0-1.35-4.2c-2.53-2.73-6.45-2.48-10,.85s-4.31,7.2-1.77,9.94a5.87,5.87,0,0,0,4.72,1.85l-.22,2.08a7.61,7.61,0,0,1-6.19-2.51C99.66,578.59,100,573.32,104.65,569Z" transform="translate(-8.59 -8.73)"/><path class="cls-1" d="M116.48,581.58c4.39-4.53,9.55-4.86,13.1-1.41s3.37,8.61-1,13.13-9.64,5-13.19,1.51S112.09,586.11,116.48,581.58Zm10.23,9.92c3.41-3.52,3.86-7.3,1.34-9.75s-6.29-1.89-9.71,1.63-4,7.41-1.44,9.85S123.29,595,126.71,591.5Z" transform="translate(-8.59 -8.73)"/><path class="cls-1" d="M139,589.45l1.89,1.65-11.56,13.23,6.48,5.65-1.4,1.6-8.36-7.3Z" transform="translate(-8.59 -8.73)"/><path class="cls-1" d="M153.69,601.88l2.22,1.76-7,19.57-2.08-1.65L151,610.81c.81-2.17,1.66-4.25,2.57-6.43l-.09-.07c-1.9,1.41-3.73,2.7-5.65,4l-9.54,6.47-2-1.58ZM144,609.09l7.11,5.63-1.24,1.57-7.12-5.63Z" transform="translate(-8.59 -8.73)"/><path class="cls-1" d="M164.62,612.86l-4.84-3.48,1.24-1.72,11.71,8.42-1.24,1.72-4.84-3.48-10.26,14.27-2-1.47Z" transform="translate(-8.59 -8.73)"/><path class="cls-1" d="M176.13,618.35l9.53,6.17-1.15,1.78-7.43-4.81-3.35,5.18,6.27,4.06-1.16,1.78-6.26-4-3.89,6,7.68,5-1.15,1.78-9.79-6.32Z" transform="translate(-8.59 -8.73)"/><path class="cls-1" d="M195.77,630.54l9.93,5.5-1,1.86-7.74-4.3-3.22,5.81,6.56,3.64-1,1.86-6.56-3.65L188.41,649l-2.19-1.22Z" transform="translate(-8.59 -8.73)"/><path class="cls-1" d="M204.11,648.25l5.06-10.39,2.25,1.09-5.09,10.46c-2.07,4.25-.92,6.47,1.39,7.59s4.85.71,6.92-3.54L219.73,643l2.16,1-5.06,10.39c-2.77,5.69-6.46,6.3-10.08,4.54S201.34,653.93,204.11,648.25Z" transform="translate(-8.59 -8.73)"/><path class="cls-1" d="M227.13,646.41l4.55,1.89c5.59,2.33,7.23,6.82,4.83,12.6s-6.81,7.9-12.3,5.62l-4.65-1.94Zm-2.4,18.1c4.25,1.77,7.48,0,9.39-4.61s.85-8-3.4-9.78l-2.06-.86-6,14.39Z" transform="translate(-8.59 -8.73)"/><path class="cls-1" d="M240.35,662.47c2.1-6,7-8.38,11.91-6.65a7.63,7.63,0,0,1,4.56,4.17L255,661.07a5.55,5.55,0,0,0-3.38-3.15c-3.75-1.32-7.16.72-8.79,5.34s-.45,8.37,3.51,9.77a5.4,5.4,0,0,0,3.73.08l1.7-4.84-3.94-1.38.69-2,6.09,2.14-2.74,7.81a8.44,8.44,0,0,1-6.48.15C240.47,673.31,238.23,668.5,240.35,662.47Z" transform="translate(-8.59 -8.73)"/><path class="cls-1" d="M262.71,659.66l10.89,3.17-.59,2-8.49-2.47-1.72,5.92L270,670.4l-.6,2-7.16-2.09-2,6.87,8.78,2.56-.6,2-11.18-3.26Z" transform="translate(-8.59 -8.73)"/><path class="cls-1" d="M285,665.71l5.72,1.22c3.92.84,6.34,2.75,5.61,6.14a4.3,4.3,0,0,1-3.71,3.58l0,.11a4.56,4.56,0,0,1,2.93,5.45c-.81,3.79-4.2,5-8.5,4.07L280.9,685Zm2.1,18.55c3.29.71,5.49-.06,6-2.66.51-2.37-1.12-3.85-4.49-4.57l-3.35-.72-1.55,7.24Zm1.45-9.22c3.28.7,4.89-.22,5.31-2.17.48-2.25-.88-3.42-3.86-4.06l-3-.63-1.34,6.25Z" transform="translate(-8.59 -8.73)"/><path class="cls-1" d="M302.79,669.34l6.09,1c4,.62,6.58,2.5,5.94,6.55-.61,3.88-3.75,5.3-7.72,4.68l-3.61-.58-1.3,8.22-2.48-.39Zm4.28,10.13c3,.48,4.88-.48,5.28-3s-1.12-3.73-4.14-4.21l-3.26-.52L303.81,679Zm-.35,1.31,2.15-1,4.32,11.11-2.81-.44Z" transform="translate(-8.59 -8.73)"/><path class="cls-1" d="M318.07,681.58c.63-6.27,4.46-9.73,9.38-9.24s8,4.66,7.36,10.92-4.47,9.88-9.39,9.39S317.44,687.86,318.07,681.58ZM332.24,683c.49-4.88-1.51-8.12-5-8.47s-6.1,2.43-6.59,7.31,1.5,8.26,5,8.61S331.75,687.88,332.24,683Z" transform="translate(-8.59 -8.73)"/><path class="cls-1" d="M338.26,673.79l2.58.09,1.7,10.78c.3,2.13.62,4.26.93,6.39h.12c.51-2.1,1.06-4.21,1.6-6.3l3.1-10.62,2.27.08L352.92,685c.41,2.1.8,4.25,1.2,6.39h.12c.46-2.11.89-4.23,1.34-6.31L358,674.47l2.42.08-4.75,19.54-3-.1-2.57-11.93c-.29-1.55-.55-3-.79-4.52h-.12c-.36,1.5-.75,2.92-1.14,4.45l-3.33,11.72-3-.1Z" transform="translate(-8.59 -8.73)"/><path class="cls-1" d="M364.24,674.43l2.58-.08,7.48,12.17,2.24,4h.12c-.19-2-.44-4.19-.5-6.25l-.29-10.18,2.38-.07.56,19.68-2.59.07-7.47-12.18-2.24-4h-.12c.18,2,.43,4.08.49,6.14l.29,10.3-2.37.07Z" transform="translate(-8.59 -8.73)"/><path class="cls-1" d="M384.26,673.63l2.5-.17,1.34,19.63-2.5.17Z" transform="translate(-8.59 -8.73)"/><path class="cls-1" d="M392.79,673l11.29-1.17.22,2.11-8.8.91.64,6.14,7.42-.77.22,2.11-7.42.77.74,7.12,9.09-1,.22,2.11-11.59,1.21Z" transform="translate(-8.59 -8.73)"/><path class="cls-1" d="M423.54,679.07a1.79,1.79,0,1,1,3.51-.62,1.78,1.78,0,1,1-3.51.62Z" transform="translate(-8.59 -8.73)"/><path class="cls-1" d="M451.8,672.87c-1.7-6.12.87-10.86,5.68-12.19a7.35,7.35,0,0,1,5.87.88l-.89,1.94a5.36,5.36,0,0,0-4.35-.71c-3.58,1-5.15,4.59-3.83,9.32s4.43,7.12,8,6.12a5.89,5.89,0,0,0,3.8-3.35l1.75,1.14a7.63,7.63,0,0,1-5.06,4.36C458.07,681.69,453.52,679,451.8,672.87Z" transform="translate(-8.59 -8.73)"/><path class="cls-1" d="M468.42,668.1c-2-6,.06-10.71,4.75-12.28s9.2,1,11.2,6.93,0,10.85-4.71,12.42S470.42,674.08,468.42,668.1Zm13.5-4.53c-1.56-4.65-4.71-6.78-8.05-5.66s-4.56,4.72-3,9.37,4.76,6.92,8.09,5.8S483.48,668.22,481.92,663.57Z" transform="translate(-8.59 -8.73)"/><path class="cls-1" d="M485.74,651.76l10.56-4.15.78,2-8.24,3.24,2.43,6.18,7-2.74.77,2-7,2.74,3.22,8.2-2.33.92Z" transform="translate(-8.59 -8.73)"/><path class="cls-1" d="M500,646l10.38-4.61.86,1.94-8.09,3.59,2.7,6.07,6.86-3,.86,1.94-6.86,3,3.58,8.05L508,664Z" transform="translate(-8.59 -8.73)"/><path class="cls-1" d="M514,639.64l10.16-5.08.94,1.9-7.91,4,2.76,5.51,6.68-3.33.94,1.9-6.67,3.33,3.2,6.41,8.18-4.09.95,1.9-10.42,5.2Z" transform="translate(-8.59 -8.73)"/><path class="cls-1" d="M528.64,632.19l9.91-5.54,1,1.85-7.72,4.32,3,5.38,6.51-3.64,1,1.85-6.51,3.64,3.5,6.25,8-4.47,1,1.85-10.16,5.69Z" transform="translate(-8.59 -8.73)"/><path class="cls-1" d="M553.07,629.42c-3.47-5.31-2.45-10.6,1.74-13.33a7.35,7.35,0,0,1,5.86-.92l-.26,2.12a5.37,5.37,0,0,0-4.36.62c-3.12,2-3.53,5.94-.85,10.05s6.37,5.45,9.5,3.42a6,6,0,0,0,2.62-4.35l2,.57a7.57,7.57,0,0,1-3.51,5.68C561.71,636,556.56,634.78,553.07,629.42Z" transform="translate(-8.59 -8.73)"/><path class="cls-1" d="M567.48,619.87c-3.71-5.1-3.16-10.23.84-13.14s9.07-1.84,12.77,3.25,3.23,10.35-.77,13.26S571.18,625,567.48,619.87ZM579,611.5c-2.89-4-6.54-5.06-9.38-3s-2.93,5.88,0,9.84,6.62,5.17,9.46,3.11S581.88,615.47,579,611.5Z" transform="translate(-8.59 -8.73)"/><path class="cls-1" d="M579.07,599.09l8.84-7.13,1.33,1.65-6.89,5.55,4.17,5.17,5.84-4.71,1.33,1.65L587.86,606l5.53,6.86-1.95,1.57Z" transform="translate(-8.59 -8.73)"/><path class="cls-1" d="M591,589.3l8.52-7.51,1.4,1.59-6.64,5.85,4.4,5,5.62-5,1.41,1.59-5.63,5,5.82,6.61L604,604.07Z" transform="translate(-8.59 -8.73)"/><path class="cls-1" d="M602.46,579l8.17-7.88,1.47,1.53-6.36,6.14,4.28,4.44,5.37-5.18,1.47,1.52-5.37,5.18,5,5.15,6.58-6.34,1.47,1.52-8.38,8.09Z" transform="translate(-8.59 -8.73)"/><path class="cls-1" d="M614.15,567.54l7.8-8.25,1.54,1.46-6.08,6.43,4.49,4.24L627,566l1.54,1.45-5.12,5.43,5.2,4.91,6.28-6.64,1.55,1.46-8,8.46Z" transform="translate(-8.59 -8.73)"/><path class="cls-1" d="M629.75,550.46l3.72-4.51c2.55-3.09,5.36-4.36,8-2.15a4.31,4.31,0,0,1,1.47,4.94l.09.07a4.54,4.54,0,0,1,6.18-.09c3,2.46,2.5,6-.29,9.42l-4,4.85Zm9.91,1.15c2.13-2.58,2.06-4.44.52-5.71-1.77-1.46-3.44-.79-5.37,1.56l-1.93,2.34,4.93,4.06Zm7.52,5.54c2.15-2.6,2.47-4.9.42-6.59-1.87-1.54-3.94-.78-6.13,1.88l-2.18,2.64,5.71,4.71Z" transform="translate(-8.59 -8.73)"/><path class="cls-1" d="M650.45,543.3l-9.3-6.87,1.49-2,9.36,6.91c3.8,2.81,6.19,2.09,7.72,0s1.57-4.64-2.23-7.45L648.13,527l1.43-1.93,9.3,6.87c5.08,3.75,5,7.49,2.63,10.73S655.54,547.05,650.45,543.3Z" transform="translate(-8.59 -8.73)"/><path class="cls-1" d="M667.29,531.43,659.6,513.9l-5.21,7.88-1.77-1.17,6.92-10.46,1.24.82,7.69,17.52,5.78-8.73,1.77,1.17-7.49,11.32Z" transform="translate(-8.59 -8.73)"/><path class="cls-1" d="M676.66,517.11,668.17,500l-4.84,8.1L661.51,507l6.43-10.77,1.28.77,8.49,17.14,5.36-9,1.82,1.08-6.95,11.65Z" transform="translate(-8.59 -8.73)"/><path class="cls-1" d="M673.35,486.36l2.65-5.21c1.81-3.57,4.28-5.43,7.36-3.86a4.3,4.3,0,0,1,2.51,4.5l.11.06a4.55,4.55,0,0,1,6-1.44c3.44,1.75,3.74,5.34,1.76,9.25l-2.85,5.61Zm9.93-1c1.51-3,1-4.78-.74-5.69-2-1-3.53,0-4.91,2.69l-1.37,2.7,5.7,2.9Zm8.54,3.76c1.53-3,1.34-5.32-1-6.52-2.17-1.1-4,.1-5.58,3.17l-1.55,3.06,6.6,3.35Z" transform="translate(-8.59 -8.73)"/><path class="cls-1" d="M692,474.84l-10.58-4.67,1-2.29,10.64,4.7c4.33,1.91,6.5.68,7.54-1.68s.52-4.87-3.81-6.78l-10.64-4.69,1-2.2,10.58,4.67c5.78,2.55,6.54,6.22,4.91,9.89S697.78,477.39,692,474.84Z" transform="translate(-8.59 -8.73)"/><path class="cls-1" d="M705.83,459.58l-11.33-15.4L691.14,453l-2-.76,4.46-11.71,1.39.53,11.34,15.4,3.72-9.78,2,.76-4.82,12.67Z" transform="translate(-8.59 -8.73)"/><path class="cls-1" d="M711.85,443.55,699.8,428.68l-2.94,9-2-.66,3.9-11.91,1.42.46,12,14.87,3.27-10,2,.66L713.26,444Z" transform="translate(-8.59 -8.73)"/><path class="cls-1" d="M701.87,414.28l1.44-5.67c1-3.88,3-6.23,6.34-5.38a4.33,4.33,0,0,1,3.44,3.84l.11,0a4.55,4.55,0,0,1,5.55-2.73c3.75.95,4.83,4.39,3.76,8.64l-1.55,6.1Zm9.46-3.2c.82-3.25,0-4.9-2-5.39-2.23-.56-3.45.76-4.2,3.71l-.74,2.93,6.19,1.58Zm9.16,1.79c.83-3.26.14-5.48-2.43-6.13-2.35-.6-3.9,1-4.74,4.31l-.85,3.33,7.18,1.82Z" transform="translate(-8.59 -8.73)"/><path class="cls-1" d="M717.53,399l-11.34-2.24.49-2.46,11.41,2.25c4.64.92,6.48-.76,7-3.28s-.56-4.87-5.2-5.78l-11.41-2.25.47-2.36,11.34,2.24c6.2,1.22,7.74,4.63,7,8.58S723.73,400.18,717.53,399Z" transform="translate(-8.59 -8.73)"/><path class="cls-1" d="M727.4,381.3l-13.91-13.13-1.73,9.28-2.08-.39L712,364.74l1.46.27,13.92,13.13,1.91-10.29,2.08.39-2.47,13.34Z" transform="translate(-8.59 -8.73)"/><path class="cls-1" d="M730.57,365.79l-10.47-16-3.84,8.62-1.94-.86,5.1-11.45,1.36.6,10.47,16,4.26-9.56,1.94.86-5.52,12.39Z" transform="translate(-8.59 -8.73)"/><path class="cls-1" d="M740.52,334.6a1.79,1.79,0,1,1,2.58.07A1.8,1.8,0,0,1,740.52,334.6Z" transform="translate(-8.59 -8.73)"/><path class="cls-1" d="M768.35,307.94l-5.67,1.81-.65-2,13.74-4.38.64,2-5.67,1.81,5.33,16.74-2.38.76Z" transform="translate(-8.59 -8.73)"/><path class="cls-1" d="M783.74,302l6.16-.38c4-.25,7,1,7.22,5.1.24,3.93-2.52,6-6.52,6.24l-3.65.23.52,8.3-2.5.16Zm6.38,9c3-.19,4.66-1.54,4.5-4.08s-1.9-3.4-5-3.21l-3.29.2.45,7.29Zm0,1.35,1.88-1.42,6.63,9.91-2.83.18Z" transform="translate(-8.59 -8.73)"/><path class="cls-1" d="M802.62,301.5h2.51v19.69h-2.51Z" transform="translate(-8.59 -8.73)"/><path class="cls-1" d="M811.4,301.5H817c4.41,0,7.39,1.49,7.39,5.8,0,4.14-3,6.08-7.27,6.08H813.9v7.81h-2.5Zm5.42,9.85c3.45,0,5.09-1.25,5.09-4.05s-1.75-3.77-5.21-3.77h-2.8v7.82Z" transform="translate(-8.59 -8.73)"/><path class="cls-1" d="M829.29,301.5h2.5v17.57h8.6v2.12h-11.1Z" transform="translate(-8.59 -8.73)"/><path class="cls-1" d="M844.77,301.5h11.34v2.12h-8.84v6.17h7.46v2.12h-7.46v7.16h9.14v2.12H844.77Z" transform="translate(-8.59 -8.73)"/><path class="cls-1" d="M867.25,311.36c0-6.35,3.74-10.22,8.73-10.22a7.33,7.33,0,0,1,5.42,2.43L880,305.2a5.35,5.35,0,0,0-4-1.86c-3.72,0-6.2,3.05-6.2,8s2.37,8.05,6.1,8.05a5.9,5.9,0,0,0,4.56-2.21l1.37,1.57a7.6,7.6,0,0,1-6,2.84C870.92,321.55,867.25,317.76,867.25,311.36Z" transform="translate(-8.59 -8.73)"/><path class="cls-1" d="M890.49,301.5h2.82L900,321.19h-2.65l-3.43-11c-.71-2.2-1.34-4.36-2-6.63h-.12c-.61,2.28-1.25,4.43-1.95,6.63l-3.47,11h-2.55Zm-3.16,11.69h9.06v2h-9.06Z" transform="translate(-8.59 -8.73)"/><path class="cls-1" d="M903.51,301.5h6.17c4,0,6.89,1.44,6.89,5.54,0,3.94-2.88,5.83-6.89,5.83H906v8.32h-2.51Zm5.81,9.34c3.06,0,4.75-1.25,4.75-3.8s-1.69-3.51-4.75-3.51H906v7.31Zm-.14,1.34,2-1.29,6,10.3h-2.84Z" transform="translate(-8.59 -8.73)"/><path class="cls-1" d="M925.44,301.5h2.83l6.66,19.69h-2.65l-3.44-11c-.7-2.2-1.34-4.36-2-6.63h-.12c-.61,2.28-1.24,4.43-2,6.63l-3.47,11h-2.55Zm-3.16,11.69h9.07v2h-9.07Z" transform="translate(-8.59 -8.73)"/><path class="cls-1" d="M938.49,301.5h3L945.28,312c.48,1.35.93,2.74,1.4,4.1h.12c.48-1.36.89-2.75,1.36-4.1l3.73-10.52h3v19.69h-2.33V310.35c0-1.72.2-4.08.32-5.82h-.12L951.22,309l-3.71,10.18h-1.66L942.12,309l-1.56-4.49h-.12c.13,1.74.32,4.1.32,5.82v10.84h-2.27Z" transform="translate(-8.59 -8.73)"/><path class="cls-1" d="M961.19,301.5h11.35v2.12H963.7v6.17h7.46v2.12H963.7v7.16h9.14v2.12H961.19Z" transform="translate(-8.59 -8.73)"/><path class="cls-1" d="M977.89,301.5h2.51v17.57H989v2.12h-11.1Z" transform="translate(-8.59 -8.73)"/><path class="cls-1" d="M999.15,311.36c0-6.35,3.74-10.22,8.73-10.22a7.33,7.33,0,0,1,5.42,2.43l-1.37,1.63a5.39,5.39,0,0,0-4-1.86c-3.72,0-6.2,3.05-6.2,8s2.37,8.05,6.1,8.05a5.9,5.9,0,0,0,4.56-2.21l1.38,1.57a7.63,7.63,0,0,1-6,2.84C1002.82,321.55,999.15,317.76,999.15,311.36Z" transform="translate(-8.59 -8.73)"/><path class="cls-1" d="M1018.33,301.5h2.5v8.25H1030V301.5h2.5v19.69H1030v-9.26h-9.16v9.26h-2.5Z" transform="translate(-8.59 -8.73)"/><path class="cls-1" d="M1038.7,313.06V301.5h2.51v11.63c0,4.73,2,6.22,4.57,6.22s4.67-1.49,4.67-6.22V301.5h2.4v11.56c0,6.32-3,8.49-7.07,8.49S1038.7,319.38,1038.7,313.06Z" transform="translate(-8.59 -8.73)"/><path class="cls-1" d="M1059.05,301.5h2.59l7.12,12.38,2.13,4.08h.12c-.13-2-.32-4.21-.32-6.27V301.5h2.38v19.69h-2.59l-7.13-12.39-2.12-4.06h-.12c.12,2,.32,4.09.32,6.15v10.3h-2.38Z" transform="translate(-8.59 -8.73)"/><path class="cls-1" d="M1079.37,301.5h2.51v9.88h.08l8.18-9.88H1093l-6.16,7.5,7.11,12.19h-2.79L1085.25,311l-3.37,4v6.22h-2.51Z" transform="translate(-8.59 -8.73)"/><path class="cls-1" d="M1110.71,311.55a1.79,1.79,0,1,1,1.78,1.87A1.8,1.8,0,0,1,1110.71,311.55Z" transform="translate(-8.59 -8.73)"/><path class="cls-1" d="M1140.49,301.5H1143v8.25h9.16V301.5h2.5v19.69h-2.5v-9.26H1143v9.26h-2.51Z" transform="translate(-8.59 -8.73)"/><path class="cls-1" d="M1165,301.5h2.83l6.66,19.69h-2.66l-3.43-11c-.71-2.2-1.34-4.36-2-6.63h-.12c-.61,2.28-1.24,4.43-1.95,6.63l-3.47,11h-2.55Zm-3.16,11.69h9.07v2h-9.07Z" transform="translate(-8.59 -8.73)"/><path class="cls-1" d="M1178.07,301.5h2.51v17.57h8.59v2.12h-11.1Z" transform="translate(-8.59 -8.73)"/><path class="cls-1" d="M1193.56,301.5h11.36v2.12h-8.85v6.64h7.5v2.12h-7.5v8.81h-2.51Z" transform="translate(-8.59 -8.73)"/><path class="cls-1" d="M1216.2,301.5H1222c4,0,6.77,1.36,6.77,4.82a4.31,4.31,0,0,1-2.87,4.28v.12a4.54,4.54,0,0,1,4,4.71c0,3.87-3.06,5.76-7.45,5.76h-6.29Zm5.42,8.38c3.34,0,4.73-1.24,4.73-3.23,0-2.3-1.57-3.16-4.62-3.16h-3v6.39Zm.51,9.32c3.37,0,5.35-1.21,5.35-3.86,0-2.43-1.91-3.54-5.35-3.54h-3.43v7.4Z" transform="translate(-8.59 -8.73)"/><path class="cls-1" d="M1238.8,301.5h2.83l6.66,19.69h-2.66l-3.43-11c-.71-2.2-1.34-4.36-2-6.63h-.12c-.61,2.28-1.24,4.43-1.95,6.63l-3.47,11h-2.55Zm-3.16,11.69h9.07v2h-9.07Z" transform="translate(-8.59 -8.73)"/><path class="cls-1" d="M1251.82,301.5h2.5v9.88h.09l8.18-9.88h2.83l-6.16,7.5,7.11,12.19h-2.79L1257.7,311l-3.38,4v6.22h-2.5Z" transform="translate(-8.59 -8.73)"/><path class="cls-1" d="M1270.12,301.5h11.35v2.12h-8.84v6.17h7.46v2.12h-7.46v7.16h9.14v2.12h-11.65Z" transform="translate(-8.59 -8.73)"/><path class="cls-1" d="M1286.84,301.5h4.93c6,0,9.29,3.52,9.29,9.78s-3.24,9.91-9.18,9.91h-5Zm4.74,17.64c4.6,0,6.9-2.89,6.9-7.86s-2.3-7.72-6.9-7.72h-2.23v15.58Z" transform="translate(-8.59 -8.73)"/></g></g></svg>